<svg width="403" height="153" viewBox="0 0 403 153" fill="none" xmlns="http://www.w3.org/2000/svg">
<path d="M78.72 77.824H107.904V96H54.4L78.72 77.824ZM6.4 49.024C6.4 42.5387 7.63733 36.3947 10.112 30.592C12.5867 24.7893 16 19.6693 20.352 15.232C24.7893 10.7093 29.9093 7.168 35.712 4.60799C41.5147 2.048 47.744 0.767998 54.4 0.767998C60.9707 0.767998 67.1573 2.048 72.96 4.60799C78.7627 7.168 83.8827 10.7093 88.32 15.232C92.8427 19.6693 96.3413 24.7893 98.816 30.592C101.376 36.3947 102.656 42.5387 102.656 49.024C102.656 55.68 101.376 61.9093 98.816 67.712C96.3413 73.5147 92.8427 78.6347 88.32 83.072C83.8827 87.424 78.7627 90.8373 72.96 93.312C67.1573 95.7867 60.9707 97.024 54.4 97.024C47.744 97.024 41.5147 95.7867 35.712 93.312C29.9093 90.8373 24.7893 87.424 20.352 83.072C16 78.6347 12.5867 73.5147 10.112 67.712C7.63733 61.9093 6.4 55.68 6.4 49.024ZM25.6 49.024C25.6 53.12 26.3253 57.0027 27.776 60.672C29.312 64.256 31.4027 67.456 34.048 70.272C36.7787 73.0027 39.8933 75.136 43.392 76.672C46.976 78.208 50.8587 78.976 55.04 78.976C59.0507 78.976 62.7627 78.208 66.176 76.672C69.6747 75.136 72.704 73.0027 75.264 70.272C77.824 67.5413 79.8293 64.384 81.28 60.8C82.7307 57.1307 83.456 53.2053 83.456 49.024C83.456 44.928 82.688 41.088 81.152 37.504C79.7013 33.8347 77.6533 30.6347 75.008 27.904C72.448 25.1733 69.4187 23.04 65.92 21.504C62.4213 19.968 58.624 19.2 54.528 19.2C50.432 19.2 46.6347 19.968 43.136 21.504C39.6373 23.04 36.5653 25.1733 33.92 27.904C31.2747 30.6347 29.2267 33.8347 27.776 37.504C26.3253 41.088 25.6 44.928 25.6 49.024ZM143.05 61.184C143.05 64.1707 143.946 67.0293 145.738 69.76C147.53 72.4907 149.877 74.7093 152.778 76.416C155.765 78.1227 159.007 78.976 162.506 78.976C166.346 78.976 169.759 78.1227 172.746 76.416C175.733 74.7093 178.079 72.4907 179.786 69.76C181.578 67.0293 182.474 64.1707 182.474 61.184V1.79199H200.778V61.568C200.778 68.48 199.071 74.624 195.658 80C192.245 85.2907 187.637 89.472 181.834 92.544C176.031 95.5307 169.589 97.024 162.506 97.024C155.509 97.024 149.109 95.5307 143.306 92.544C137.589 89.472 133.023 85.2907 129.61 80C126.197 74.624 124.49 68.48 124.49 61.568V1.79199H143.05V61.184ZM237.368 1.79199L264.888 69.632L254.136 67.456L279.096 1.79199H301.112L258.104 100.352L215.096 1.79199H237.368Z" fill="white"></path>
<path d="M333.885 40.088C331.645 40.088 329.757 39.384 328.222 37.976C326.685 36.504 325.917 34.712 325.917 32.6C325.917 30.488 326.685 28.728 328.222 27.32C329.757 25.912 331.645 25.208 333.885 25.208C336.126 25.208 337.982 25.912 339.454 27.32C340.99 28.728 341.758 30.488 341.758 32.6C341.758 34.712 340.99 36.504 339.454 37.976C337.982 39.384 336.126 40.088 333.885 40.088ZM329.853 95C326.461 95 323.933 93.944 322.269 91.832C320.605 89.656 320.093 86.776 320.733 83.192L324.957 59.384C325.342 57.272 324.51 56.216 322.462 56.216H310.941L312.477 47.384H325.821C329.918 47.384 332.67 48.344 334.077 50.264C335.486 52.184 335.838 55.192 335.134 59.288L330.91 83C330.59 85.112 331.454 86.168 333.502 86.168H347.037L345.502 95H329.853ZM367.544 95C362.872 95 359.352 93.688 356.984 91.064C354.616 88.376 353.848 84.504 354.68 79.448L358.808 56.024H346.808L348.344 47.384H355.448C358.712 47.384 360.92 45.784 362.072 42.584L364.856 34.904H372.728L370.52 47.384H389.336L387.8 56.024H368.984L364.856 79.256C364.536 81.304 364.824 82.936 365.72 84.152C366.68 85.368 368.44 85.976 371 85.976H382.328L380.792 95H367.544Z" fill="white"></path>
</svg>